<?xml version="1.0" encoding="UTF-8" standalone="no"?>
<!-- Uploaded to: SVG Repo, www.svgrepo.com, Generator: SVG Repo Mixer Tools -->

<svg
   width="800px"
   height="800px"
   viewBox="-1.5 0 19 19"
   version="1.1"
   id="svg132"
   sodipodi:docname="replay.svg"
   inkscape:version="1.2.2 (1:1.2.2+202305151914+b0a8486541)"
   xmlns:inkscape="http://www.inkscape.org/namespaces/inkscape"
   xmlns:sodipodi="http://sodipodi.sourceforge.net/DTD/sodipodi-0.dtd"
   xmlns="http://www.w3.org/2000/svg"
   xmlns:svg="http://www.w3.org/2000/svg">
  <defs
     id="defs136" />
  <sodipodi:namedview
     id="namedview134"
     pagecolor="#ffffff"
     bordercolor="#cccccc"
     borderopacity="1"
     inkscape:showpageshadow="0"
     inkscape:pageopacity="1"
     inkscape:pagecheckerboard="0"
     inkscape:deskcolor="#d1d1d1"
     showgrid="false"
     inkscape:zoom="0.417193"
     inkscape:cx="-85.092511"
     inkscape:cy="387.111"
     inkscape:window-width="1920"
     inkscape:window-height="1035"
     inkscape:window-x="0"
     inkscape:window-y="20"
     inkscape:window-maximized="1"
     inkscape:current-layer="svg132" />
  <title
     id="title123">multimedia / 7 - multimedia, refresh, replay, video icon</title>
  <g
     id="Free-Icons"
     stroke="none"
     stroke-width="1"
     fill="none"
     fill-rule="evenodd"
     transform="matrix(0.94918248,0,0,0.94918248,0.40654016,0.48276644)">
    <g
       transform="translate(-1193,-305)"
       id="Group">
      <g
         transform="translate(1189,302)"
         id="Shape">
        <path
           d="M 12,7 C 15.865993,7 19,10.134007 19,14 19,17.865993 15.865993,21 12,21 8.1340067,21 5,17.865993 5,14"
           stroke="#000000"
           stroke-width="2"
           stroke-linecap="round"
           stroke-linejoin="round"
           id="path125" />
        <path
           d="M 10.826092,10.885715 5.6956802,7.3047774 C 5.4795696,7.1785414 5.4357715,6.939761 5.5978545,6.7714463 5.6256635,6.7425681 5.6586015,6.7169149 5.6956802,6.6952562 L 10.826092,3.1143189 C 11.150257,2.9249649 11.610137,2.9761321 11.853261,3.2286041 11.948511,3.3275158 12,3.4478202 12,3.5714598 V 10.428574 C 12,10.744164 11.671515,11 11.266307,11 11.107558,11 10.953091,10.959899 10.826092,10.885715 Z"
           fill="#000000"
           id="path127" />
      </g>
    </g>
  </g>
</svg>
