<?xml version="1.0" encoding="UTF-8" standalone="no"?>
<!-- Created with Inkscape (http://www.inkscape.org/) -->

<svg
   width="8.2222376in"
   height="2.5844815in"
   viewBox="0 0 208.84483 65.64583"
   version="1.1"
   id="svg13509"
   inkscape:version="1.2.2 (1:1.2.2+202305151914+b0a8486541)"
   sodipodi:docname="combined.svg"
   inkscape:export-filename="combined.pdf"
   inkscape:export-xdpi="96"
   inkscape:export-ydpi="96"
   xmlns:inkscape="http://www.inkscape.org/namespaces/inkscape"
   xmlns:sodipodi="http://sodipodi.sourceforge.net/DTD/sodipodi-0.dtd"
   xmlns="http://www.w3.org/2000/svg"
   xmlns:svg="http://www.w3.org/2000/svg">
  <style
     id="style20219">
#text3925, #text3929, #text3933, #text3937, #text3941, #text3945, #text305, #text305-6, #text305-6-9, #text305-6-9-4, #text3917, #text3921 { 
    line-height:1.1;
}
</style>
  <sodipodi:namedview
     id="namedview13511"
     pagecolor="#ffffff"
     bordercolor="#cccccc"
     borderopacity="1"
     inkscape:showpageshadow="0"
     inkscape:pageopacity="1"
     inkscape:pagecheckerboard="0"
     inkscape:deskcolor="#d1d1d1"
     inkscape:document-units="mm"
     showgrid="false"
     inkscape:zoom="1.169609"
     inkscape:cx="390.72886"
     inkscape:cy="227.85392"
     inkscape:window-width="1920"
     inkscape:window-height="1035"
     inkscape:window-x="0"
     inkscape:window-y="20"
     inkscape:window-maximized="1"
     inkscape:current-layer="layer1" />
  <defs
     id="defs13506" />
  <g
     inkscape:label="Layer 1"
     inkscape:groupmode="layer"
     id="layer1"
     transform="translate(-4.7339053,-40.470093)">
    <path
       d="M 82.305725,76.166307 C 83.049957,80.387053 82.714659,84.728263 81.331139,88.784669 79.947613,92.841076 77.560302,96.482403 74.392059,99.368716 71.223817,102.25503 67.376401,104.29363 63.20898,105.29422 59.041559,106.2948 54.687977,106.22523 50.554654,105.09199 46.421333,103.95876 42.641021,101.79826 39.566623,98.812187 36.492224,95.826111 34.222481,92.110362 32.969281,88.011817 31.71608,83.913275 31.51967,79.563568 32.398386,75.368759 33.277102,71.173951 35.202725,67.268762 37.995488,64.017755 L 57.275152,80.579874 Z"
       style="fill:#4878d0;fill-opacity:1;fill-rule:nonzero;stroke:#ffffff;stroke-width:0.238779;stroke-linecap:butt;stroke-linejoin:miter;stroke-miterlimit:10;stroke-dasharray:none;stroke-opacity:1"
       id="path3899" />
    <path
       d="M 37.995488,64.017755 C 39.309846,62.487737 40.801673,61.119606 42.439458,59.942256 44.077243,58.764906 45.849373,57.786693 47.71841,57.028272 L 57.275152,80.579874 Z"
       style="fill:#ee854a;fill-opacity:1;fill-rule:nonzero;stroke:#ffffff;stroke-width:0.238779;stroke-linecap:butt;stroke-linejoin:miter;stroke-miterlimit:10;stroke-dasharray:none;stroke-opacity:1"
       id="path3901" />
    <path
       d="M 47.71841,57.028272 C 49.461946,56.320786 51.278667,55.809089 53.135148,55.502597 54.991632,55.196116 56.876418,55.096732 58.754838,55.20627 L 57.275152,80.579874 Z"
       style="fill:#6acc64;fill-opacity:1;fill-rule:nonzero;stroke:#ffffff;stroke-width:0.238779;stroke-linecap:butt;stroke-linejoin:miter;stroke-miterlimit:10;stroke-dasharray:none;stroke-opacity:1"
       id="path3903" />
    <path
       d="M 58.754838,55.20627 C 60.010422,55.27946 61.25884,55.445812 62.489803,55.703845 63.720768,55.961888 64.930879,56.310948 66.110167,56.748136 L 57.275152,80.579874 Z"
       style="fill:#d65f5f;fill-opacity:1;fill-rule:nonzero;stroke:#ffffff;stroke-width:0.238779;stroke-linecap:butt;stroke-linejoin:miter;stroke-miterlimit:10;stroke-dasharray:none;stroke-opacity:1"
       id="path3905" />
    <path
       d="M 66.110167,56.748136 C 67.784333,57.368794 69.388445,58.164135 70.895923,59.12099 72.403394,60.077835 73.805852,61.190882 75.080053,62.441663 L 57.275152,80.579874 Z"
       style="fill:#956cb4;fill-opacity:1;fill-rule:nonzero;stroke:#ffffff;stroke-width:0.238779;stroke-linecap:butt;stroke-linejoin:miter;stroke-miterlimit:10;stroke-dasharray:none;stroke-opacity:1"
       id="path3907" />
    <path
       d="M 75.080053,62.441663 C 76.271887,63.611603 77.345524,64.89617 78.285367,66.276727 79.225208,67.657284 80.026696,69.12712 80.6782,70.664909 L 57.275152,80.579874 Z"
       style="fill:#8c613c;fill-opacity:1;fill-rule:nonzero;stroke:#ffffff;stroke-width:0.238779;stroke-linecap:butt;stroke-linejoin:miter;stroke-miterlimit:10;stroke-dasharray:none;stroke-opacity:1"
       id="path3909" />
    <path
       d="M 80.6782,70.664909 C 80.934951,71.270946 81.168072,71.886728 81.377023,72.510865 81.585974,73.135 81.770605,73.767015 81.930491,74.405482 L 57.275152,80.579874 Z"
       style="fill:#dc7ec0;fill-opacity:1;fill-rule:nonzero;stroke:#ffffff;stroke-width:0.238779;stroke-linecap:butt;stroke-linejoin:miter;stroke-miterlimit:10;stroke-dasharray:none;stroke-opacity:1"
       id="path3911" />
    <path
       d="M 81.930491,74.405482 C 82.003401,74.696622 82.071148,74.989033 82.133702,75.282572 82.196242,75.576111 82.253607,75.870736 82.305725,76.166307 L 57.275152,80.579874 Z"
       style="fill:#797979;fill-opacity:1;fill-rule:nonzero;stroke:#ffffff;stroke-width:0.238779;stroke-linecap:butt;stroke-linejoin:miter;stroke-miterlimit:10;stroke-dasharray:none;stroke-opacity:1"
       id="path3913" />
    <text
       xml:space="preserve"
       style="font-style:normal;font-variant:normal;font-weight:500;font-stretch:normal;font-size:3.59833px;font-family:'Times New Roman';-inkscape-font-specification:'Times New Roman';font-variant-ligatures:no-common-ligatures;text-align:center;text-anchor:middle"
       id="text3917"
       x="19.547148"
       y="98.537102"><tspan
         sodipodi:role="line"
         id="tspan5236"
         x="19.547148"
         y="98.537102"
         style="font-style:normal;font-variant:normal;font-weight:500;font-stretch:normal;font-size:3.59833px;font-family:'Times New Roman';-inkscape-font-specification:'Times New Roman';font-variant-ligatures:no-common-ligatures;font-variant-caps:normal;font-variant-numeric:normal;font-variant-east-asian:normal;stroke-width:0.238779">Object Manipulation</tspan><tspan
         sodipodi:role="line"
         x="19.547148"
         y="102.50554"
         id="tspan10240"
         style="font-style:normal;font-variant:normal;font-weight:500;font-stretch:normal;font-size:3.59833px;font-family:'Times New Roman';-inkscape-font-specification:'Times New Roman';font-variant-ligatures:no-common-ligatures;font-variant-caps:normal;font-variant-numeric:normal;font-variant-east-asian:normal;stroke-width:0.238779">(28,298)</tspan></text>
    <text
       xml:space="preserve"
       style="font-style:normal;font-variant:normal;font-weight:500;font-stretch:normal;font-size:3.59833px;font-family:'Times New Roman';-inkscape-font-specification:'Times New Roman';font-variant-ligatures:no-common-ligatures;font-variant-caps:normal;font-variant-numeric:normal;font-variant-east-asian:normal;text-align:center;writing-mode:lr-tb;text-anchor:middle;stroke:none;stroke-width:0.238779"
       id="text3921"
       x="24.572571"
       y="55.650024"><tspan
         sodipodi:role="line"
         x="24.572571"
         y="55.650024"
         id="tspan10242"
         style="font-style:normal;font-variant:normal;font-weight:500;font-stretch:normal;font-size:3.59833px;font-family:'Times New Roman';-inkscape-font-specification:'Times New Roman';font-variant-ligatures:no-common-ligatures;font-variant-caps:normal;font-variant-numeric:normal;font-variant-east-asian:normal;stroke-width:0.238779">Environment</tspan><tspan
         sodipodi:role="line"
         x="24.572571"
         y="59.618462"
         id="tspan10477"
         style="font-style:normal;font-variant:normal;font-weight:500;font-stretch:normal;font-size:3.59833px;font-family:'Times New Roman';-inkscape-font-specification:'Times New Roman';font-variant-ligatures:no-common-ligatures;font-variant-caps:normal;font-variant-numeric:normal;font-variant-east-asian:normal;stroke-width:0.238779">Manipulation (3,343)</tspan></text>
    <text
       xml:space="preserve"
       style="font-style:normal;font-variant:normal;font-weight:500;font-stretch:normal;font-size:3.59833px;font-family:'Times New Roman';-inkscape-font-specification:'Times New Roman';font-variant-ligatures:no-common-ligatures;font-variant-caps:normal;font-variant-numeric:normal;font-variant-east-asian:normal;text-align:center;letter-spacing:0px;word-spacing:0px;writing-mode:lr-tb;text-anchor:middle;stroke:none;stroke-width:0.238779"
       id="text3925"
       x="27.83544"
       y="42.970299"><tspan
         sodipodi:role="line"
         id="tspan5210"
         x="27.83544"
         y="42.970299"
         style="font-style:normal;font-variant:normal;font-weight:500;font-stretch:normal;font-size:3.59833px;line-height:1;font-family:'Times New Roman';-inkscape-font-specification:'Times New Roman';font-variant-ligatures:no-common-ligatures;font-variant-caps:normal;font-variant-numeric:normal;font-variant-east-asian:normal;stroke-width:0.238779"
         dy="0 0 0 0 0 0 0 0 0 0 0 0 0 0 0 0 0 0 0 -0.15000001">Mixed Object &amp; Environment</tspan><tspan
         sodipodi:role="line"
         id="tspan5212"
         x="27.83544"
         y="46.928463"
         style="font-style:normal;font-variant:normal;font-weight:500;font-stretch:normal;font-size:3.59833px;line-height:1;font-family:'Times New Roman';-inkscape-font-specification:'Times New Roman';font-variant-ligatures:no-common-ligatures;font-variant-caps:normal;font-variant-numeric:normal;font-variant-east-asian:normal;stroke-width:0.238779">Manipulation (3,119)</tspan></text>
    <text
       xml:space="preserve"
       style="font-style:normal;font-variant:normal;font-weight:500;font-stretch:normal;font-size:3.59833px;font-family:'Times New Roman';-inkscape-font-specification:'Times New Roman';font-variant-ligatures:no-common-ligatures;font-variant-caps:normal;font-variant-numeric:normal;font-variant-east-asian:normal;text-align:center;writing-mode:lr-tb;text-anchor:middle;display:inline;stroke:none;stroke-width:0.238779"
       id="text3929"
       x="87.386932"
       y="42.970757"><tspan
         sodipodi:role="line"
         x="87.386932"
         y="42.970757"
         id="tspan5228"
         style="font-style:normal;font-variant:normal;font-weight:500;font-stretch:normal;font-size:3.59833px;font-family:'Times New Roman';-inkscape-font-specification:'Times New Roman';font-variant-ligatures:no-common-ligatures;font-variant-caps:normal;font-variant-numeric:normal;font-variant-east-asian:normal;stroke-width:0.238779">Mixed Object &amp; Cloth</tspan><tspan
         sodipodi:role="line"
         x="87.386932"
         y="46.939194"
         id="tspan5256"
         style="font-style:normal;font-variant:normal;font-weight:500;font-stretch:normal;font-size:3.59833px;font-family:'Times New Roman';-inkscape-font-specification:'Times New Roman';font-variant-ligatures:no-common-ligatures;font-variant-caps:normal;font-variant-numeric:normal;font-variant-east-asian:normal;stroke-width:0.238779">Manipulation (2,086)</tspan></text>
    <text
       xml:space="preserve"
       style="font-style:normal;font-variant:normal;font-weight:500;font-stretch:normal;font-size:3.59833px;font-family:'Times New Roman';-inkscape-font-specification:'Times New Roman';font-variant-ligatures:no-common-ligatures;font-variant-caps:normal;font-variant-numeric:normal;font-variant-east-asian:normal;text-align:center;writing-mode:lr-tb;text-anchor:middle;stroke:none;stroke-width:0.238779"
       id="text3933"
       x="93.603317"
       y="58.579754"><tspan
         sodipodi:role="line"
         id="tspan5224"
         x="93.603317"
         y="58.579754"
         style="font-style:normal;font-variant:normal;font-weight:500;font-stretch:normal;font-size:3.59833px;font-family:'Times New Roman';-inkscape-font-specification:'Times New Roman';font-variant-ligatures:no-common-ligatures;font-variant-caps:normal;font-variant-numeric:normal;font-variant-east-asian:normal;stroke-width:0.238779">Cloth Manipulation (2,960)</tspan></text>
    <text
       xml:space="preserve"
       style="font-style:normal;font-variant:normal;font-weight:500;font-stretch:normal;font-size:3.59833px;font-family:'Times New Roman';-inkscape-font-specification:'Times New Roman';font-variant-ligatures:no-common-ligatures;font-variant-caps:normal;font-variant-numeric:normal;font-variant-east-asian:normal;text-align:center;writing-mode:lr-tb;text-anchor:middle;stroke:none;stroke-width:0.238779"
       id="text3937"
       x="97.352264"
       y="66.323479"><tspan
         sodipodi:role="line"
         id="tspan5222"
         x="97.352264"
         y="66.323479"
         style="font-style:normal;font-variant:normal;font-weight:500;font-stretch:normal;font-size:3.59833px;font-family:'Times New Roman';-inkscape-font-specification:'Times New Roman';font-variant-ligatures:no-common-ligatures;font-variant-caps:normal;font-variant-numeric:normal;font-variant-east-asian:normal;stroke-width:0.238779">Block Stacking (2,769)</tspan></text>
    <text
       xml:space="preserve"
       style="font-style:normal;font-variant:normal;font-weight:500;font-stretch:normal;font-size:3.59833px;font-family:'Times New Roman';-inkscape-font-specification:'Times New Roman';font-variant-ligatures:no-common-ligatures;font-variant-caps:normal;font-variant-numeric:normal;font-variant-east-asian:normal;text-align:center;writing-mode:lr-tb;text-anchor:middle;stroke:none;stroke-width:0.238779"
       id="text3941"
       x="103.20649"
       y="72.855568"><tspan
         sodipodi:role="line"
         id="tspan5220"
         x="103.20649"
         y="72.855568"
         style="font-style:normal;font-variant:normal;font-weight:500;font-stretch:normal;font-size:3.59833px;font-family:'Times New Roman';-inkscape-font-specification:'Times New Roman';font-variant-ligatures:no-common-ligatures;font-variant-caps:normal;font-variant-numeric:normal;font-variant-east-asian:normal;stroke-width:0.238779">Granular Sweeping (1,092)</tspan></text>
    <text
       xml:space="preserve"
       style="font-style:normal;font-variant:normal;font-weight:500;font-stretch:normal;font-size:3.59833px;font-family:'Times New Roman';-inkscape-font-specification:'Times New Roman';font-variant-ligatures:no-common-ligatures;font-variant-caps:normal;font-variant-numeric:normal;font-variant-east-asian:normal;text-align:center;text-anchor:middle;stroke:none;stroke-width:0.238779"
       id="text3945"
       x="99.113121"
       y="78.06707"><tspan
         sodipodi:role="line"
         id="tspan5238"
         x="99.113121"
         y="78.06707"
         style="font-style:normal;font-variant:normal;font-weight:500;font-stretch:normal;font-size:3.59833px;font-family:'Times New Roman';-inkscape-font-specification:'Times New Roman';font-variant-ligatures:no-common-ligatures;font-variant-caps:normal;font-variant-numeric:normal;font-variant-east-asian:normal;stroke-width:0.238779">Other (498)</tspan></text>
    <path
       style="fill:#4878d0;fill-opacity:1;stroke-width:0.268626;stroke-linecap:round"
       d="M 57.099392,80.587529 57.229928,80.710652 57.441323,80.672192 57.860701,81.234032 57.029148,81.468785 56.568843,80.785204 Z"
       id="path4745"
       sodipodi:nodetypes="ccccccc" />
    <path
       style="fill:none;fill-opacity:1;stroke:#040404;stroke-width:0.268626;stroke-linecap:round;stroke-linejoin:round;stroke-dasharray:none;stroke-dashoffset:0;stroke-opacity:1"
       d="M 68.272891,44.929041 C 62.019584,44.970941 64.011325,49.62909 62.951655,54.687789"
       id="path8618"
       sodipodi:nodetypes="cc" />
    <path
       style="fill:none;fill-opacity:1;stroke:#040404;stroke-width:0.268626;stroke-linecap:round;stroke-linejoin:round;stroke-dasharray:none;stroke-dashoffset:0;stroke-opacity:1"
       d="M 89.219595,76.97628 C 86.602303,76.93719 86.614482,74.707307 82.811211,75.257631"
       id="path8618-6"
       sodipodi:nodetypes="cc" />
    <path
       style="fill:none;fill-opacity:1;stroke:#040404;stroke-width:0.268626;stroke-linecap:round;stroke-linejoin:round;stroke-dasharray:none;stroke-dashoffset:0;stroke-opacity:1"
       d="M 47.495084,44.797761 C 53.886888,44.829761 51.840474,49.721439 52.87462,54.690582"
       id="path8618-7"
       sodipodi:nodetypes="cc" />
    <path
       d="M 186.4979,80.358997 C 186.4979,79.47051 186.4515,78.582632 186.35899,77.698981 186.26649,76.815326 186.12785,75.937106 185.94376,75.067904 L 178.44885,76.655232 C 178.57771,77.263672 178.67473,77.87843 178.73951,78.496983 178.80431,79.115539 178.83671,79.73706 178.83671,80.358997 Z"
       style="fill:#0173b2;fill-opacity:1;fill-rule:nonzero;stroke:#ffffff;stroke-width:0.1911;stroke-linecap:butt;stroke-linejoin:miter;stroke-miterlimit:10;stroke-dasharray:none;stroke-opacity:1"
       id="path37" />
    <path
       d="M 185.94376,75.067904 C 184.57939,68.625865 180.77485,62.954773 175.3315,59.249174 169.88813,55.543576 163.21699,54.083297 156.72332,55.175932 L 157.99452,62.730852 C 162.54012,61.966008 167.2099,62.988201 171.02026,65.582119 174.83061,68.17604 177.49379,72.145805 178.44885,76.655232 Z"
       style="fill:#de8f05;fill-opacity:1;fill-rule:nonzero;stroke:#ffffff;stroke-width:0.1911;stroke-linecap:butt;stroke-linejoin:miter;stroke-miterlimit:10;stroke-dasharray:none;stroke-opacity:1"
       id="path39" />
    <path
       d="M 156.72332,55.175932 C 152.2565,55.927521 148.06906,57.85418 144.59226,60.757471 141.11548,63.660764 138.47292,67.437473 136.9368,71.698626 135.40068,75.959776 135.02559,80.55388 135.85016,85.00777 136.67473,89.461665 138.66965,93.617002 141.62946,97.04581 144.58925,100.47462 148.40871,103.055 152.69446,104.5212 156.98019,105.98739 161.57984,106.28727 166.01968,105.38996 170.45952,104.49263 174.58168,102.43002 177.96164,99.414531 181.34158,96.399052 183.85915,92.537913 185.25505,88.228787 L 177.96675,85.86785 C 176.98962,88.884234 175.22731,91.587033 172.86136,93.697871 170.49539,95.808706 167.60987,97.252538 164.50198,97.880668 161.39409,98.508791 158.17435,98.298877 155.17433,97.272539 152.17431,96.246201 149.50068,94.439932 147.42883,92.039764 145.35696,89.639598 143.96052,86.730864 143.38333,83.613139 142.80612,80.495414 143.06869,77.279543 144.14397,74.296739 145.21924,71.313929 147.06903,68.670234 149.50279,66.637928 151.93655,64.605624 154.86775,63.256964 157.99452,62.730852 Z"
       style="fill:#029e73;fill-opacity:1;fill-rule:nonzero;stroke:#ffffff;stroke-width:0.1911;stroke-linecap:butt;stroke-linejoin:miter;stroke-miterlimit:10;stroke-dasharray:none;stroke-opacity:1"
       id="path41" />
    <path
       d="M 185.25505,88.228787 C 185.66614,86.959695 185.97718,85.66034 186.18528,84.342658 186.39339,83.024977 186.4979,81.693012 186.4979,80.358991 L 178.83675,80.358997 C 178.83675,81.292808 178.76355,82.225183 178.61791,83.147558 178.47223,84.069939 178.25452,84.979487 177.96675,85.86785 Z"
       style="fill:#d55e00;fill-opacity:1;fill-rule:nonzero;stroke:#ffffff;stroke-width:0.1911;stroke-linecap:butt;stroke-linejoin:miter;stroke-miterlimit:10;stroke-dasharray:none;stroke-opacity:1"
       id="path43" />
    <path
       d="M 178.83675,80.358997 C 178.83675,80.331057 178.83667,80.303047 178.83656,80.275067 178.83642,80.247117 178.83617,80.219127 178.83601,80.191137 L 171.1752,80.263077 C 171.17534,80.279057 171.17538,80.295037 171.17558,80.311017 171.17565,80.326987 171.17569,80.342977 171.17569,80.358957 H 178.83684 Z"
       style="fill:#0159ff;fill-opacity:1;fill-rule:nonzero;stroke:#ffffff;stroke-width:0.1911;stroke-linecap:butt;stroke-linejoin:miter;stroke-miterlimit:10;stroke-dasharray:none;stroke-opacity:1"
       id="path45" />
    <path
       d="M 178.83596,80.191151 C 178.8354,80.123341 178.83396,80.055526 178.83296,79.987722 178.83196,79.919922 178.82996,79.852128 178.82796,79.784345 L 171.17076,80.030625 C 171.17176,80.069365 171.17276,80.108095 171.17376,80.146839 171.1743,80.185579 171.17476,80.224329 171.17576,80.263083 L 178.83658,80.191143 Z"
       style="fill:#016fcc;fill-opacity:1;fill-rule:nonzero;stroke:#ffffff;stroke-width:0.1911;stroke-linecap:butt;stroke-linejoin:miter;stroke-miterlimit:10;stroke-dasharray:none;stroke-opacity:1"
       id="path47" />
    <path
       d="M 178.82751,79.784345 C 178.82251,79.640307 178.81661,79.496328 178.80841,79.352442 178.80041,79.20856 178.79041,79.064777 178.77881,78.921135 L 171.14248,79.537362 C 171.14848,79.619442 171.15478,79.701606 171.15938,79.783826 171.16438,79.866036 171.16738,79.948319 171.17028,80.030625 Z"
       style="fill:#017299;fill-opacity:1;fill-rule:nonzero;stroke:#ffffff;stroke-width:0.1911;stroke-linecap:butt;stroke-linejoin:miter;stroke-miterlimit:10;stroke-dasharray:none;stroke-opacity:1"
       id="path49" />
    <path
       d="M 178.77882,78.921135 C 178.74812,78.540443 178.70522,78.160837 178.65016,77.782891 178.59516,77.404952 178.52798,77.028871 178.44885,76.655232 L 170.95394,78.242557 C 170.99904,78.456069 171.03754,78.670972 171.06896,78.886938 171.10046,79.102902 171.12486,79.319826 171.14246,79.537362 Z"
       style="fill:#016065;fill-opacity:1;fill-rule:nonzero;stroke:#ffffff;stroke-width:0.1911;stroke-linecap:butt;stroke-linejoin:miter;stroke-miterlimit:10;stroke-dasharray:none;stroke-opacity:1"
       id="path51" />
    <path
       d="M 178.44885,76.655232 C 178.44085,76.613802 178.43105,76.572322 178.42205,76.530929 178.41405,76.489539 178.40375,76.448159 178.39445,76.40682 L 170.92287,78.100609 C 170.92787,78.124239 170.93357,78.147839 170.93857,78.171529 170.94357,78.195209 170.94927,78.218869 170.95387,78.242559 L 178.44878,76.655235 Z"
       style="fill:#ffef06;fill-opacity:1;fill-rule:nonzero;stroke:#ffffff;stroke-width:0.1911;stroke-linecap:butt;stroke-linejoin:miter;stroke-miterlimit:10;stroke-dasharray:none;stroke-opacity:1"
       id="path53" />
    <path
       d="M 178.39438,76.40682 C 178.38538,76.36549 178.37548,76.32418 178.36578,76.282912 178.35678,76.241632 178.34638,76.200402 178.33638,76.159208 L 170.88966,77.959117 C 170.89466,77.982677 170.90086,78.006247 170.90646,78.029807 170.91146,78.053367 170.91736,78.076987 170.92286,78.100607 Z"
       style="fill:#ffd606;fill-opacity:1;fill-rule:nonzero;stroke:#ffffff;stroke-width:0.1911;stroke-linecap:butt;stroke-linejoin:miter;stroke-miterlimit:10;stroke-dasharray:none;stroke-opacity:1"
       id="path55" />
    <path
       d="M 178.33639,76.159208 C 178.30579,76.033134 178.27409,75.907399 178.24079,75.782023 178.20749,75.656646 178.17309,75.531633 178.13705,75.407003 L 170.7757,77.529289 C 170.7963,77.600489 170.816,77.671939 170.8349,77.74358 170.8538,77.81522 170.8721,77.887076 170.8895,77.959117 Z"
       style="fill:#f8b806;fill-opacity:1;fill-rule:nonzero;stroke:#ffffff;stroke-width:0.1911;stroke-linecap:butt;stroke-linejoin:miter;stroke-miterlimit:10;stroke-dasharray:none;stroke-opacity:1"
       id="path57" />
    <path
       d="M 178.13716,75.407003 C 178.04956,75.103164 177.95392,74.801702 177.85032,74.502937 177.74668,74.204168 177.63523,73.908205 177.51593,73.61535 L 170.42083,76.505484 C 170.48903,76.672828 170.55271,76.841951 170.61191,77.012674 170.67111,77.183395 170.72576,77.355662 170.77582,77.529289 Z"
       style="fill:#de8f05;fill-opacity:1;fill-rule:nonzero;stroke:#ffffff;stroke-width:0.1911;stroke-linecap:butt;stroke-linejoin:miter;stroke-miterlimit:10;stroke-dasharray:none;stroke-opacity:1"
       id="path59" />
    <path
       d="M 177.51571,73.615211 C 177.15077,72.719352 176.71374,71.854584 176.20892,71.029443 175.70403,70.2043 175.13301,69.421489 174.50149,68.688745 L 168.69823,73.690184 C 169.05918,74.108904 169.38545,74.556213 169.67395,75.027729 169.96244,75.499242 170.21215,75.993391 170.4207,76.505314 Z"
       style="fill:#c56b04;fill-opacity:1;fill-rule:nonzero;stroke:#ffffff;stroke-width:0.191095;stroke-linecap:butt;stroke-linejoin:miter;stroke-miterlimit:10;stroke-dasharray:none;stroke-opacity:1"
       id="path61" />
    <path
       d="M 174.50149,68.688745 C 173.82258,67.900988 173.07617,67.173988 172.27089,66.516007 171.46552,65.858022 170.60436,65.27157 169.69705,64.763321 L 165.95288,71.447086 C 166.47133,71.737513 166.96341,72.072631 167.42369,72.448622 167.88377,72.824609 168.31033,73.240042 168.69823,73.690184 Z"
       style="fill:#ab4d04;fill-opacity:1;fill-rule:nonzero;stroke:#ffffff;stroke-width:0.191095;stroke-linecap:butt;stroke-linejoin:miter;stroke-miterlimit:10;stroke-dasharray:none;stroke-opacity:1"
       id="path63" />
    <path
       d="M 169.69706,64.763329 C 167.93229,63.774746 166.01251,63.09284 164.01952,62.746703 162.02657,62.400577 159.98928,62.395208 157.99452,62.730873 L 159.26572,70.28571 C 160.40556,70.09392 161.56974,70.096984 162.70859,70.29521 163.84744,70.492999 164.94444,70.88266 165.95289,71.447565 L 169.69706,64.763786 Z"
       style="fill:#923303;fill-opacity:1;fill-rule:nonzero;stroke:#ffffff;stroke-width:0.191096;stroke-linecap:butt;stroke-linejoin:miter;stroke-miterlimit:10;stroke-dasharray:none;stroke-opacity:1"
       id="path65" />
    <path
       d="M 157.99452,62.730852 C 157.98022,62.733152 157.96612,62.735652 157.95192,62.737952 157.93762,62.740352 157.92352,62.742752 157.90942,62.745152 L 159.21716,70.293833 C 159.22516,70.292333 159.23346,70.291133 159.24166,70.289633 159.24966,70.288133 159.25796,70.286933 159.26606,70.285533 L 157.99485,62.730614 Z"
       style="fill:#03e5eb;fill-opacity:1;fill-rule:nonzero;stroke:#ffffff;stroke-width:0.1911;stroke-linecap:butt;stroke-linejoin:miter;stroke-miterlimit:10;stroke-dasharray:none;stroke-opacity:1"
       id="path67" />
    <path
       d="M 157.90929,62.745406 C 157.84199,62.757036 157.77488,62.769096 157.70777,62.781506 157.64057,62.793936 157.57364,62.806726 157.50669,62.819906 L 158.98697,70.336661 C 159.02527,70.329061 159.06347,70.321811 159.10188,70.314711 159.14028,70.307711 159.17858,70.300731 159.21704,70.294081 Z"
       style="fill:#03d5c8;fill-opacity:1;fill-rule:nonzero;stroke:#ffffff;stroke-width:0.1911;stroke-linecap:butt;stroke-linejoin:miter;stroke-miterlimit:10;stroke-dasharray:none;stroke-opacity:1"
       id="path69" />
    <path
       d="M 157.50669,62.81991 C 157.389,62.84309 157.27155,62.86744 157.15434,62.89299 157.03714,62.91853 156.92019,62.94526 156.80353,62.97315 L 158.58517,70.42423 C 158.65197,70.40829 158.71866,70.39303 158.78563,70.37842 158.85273,70.36383 158.91973,70.3499 158.98697,70.33666 Z"
       style="fill:#02bfa3;fill-opacity:1;fill-rule:nonzero;stroke:#ffffff;stroke-width:0.1911;stroke-linecap:butt;stroke-linejoin:miter;stroke-miterlimit:10;stroke-dasharray:none;stroke-opacity:1"
       id="path71" />
    <path
       d="M 156.80353,62.973147 C 156.51496,63.042157 156.22813,63.118327 155.94333,63.201607 155.65855,63.284897 155.37587,63.375246 155.09559,63.472598 L 157.6092,70.709625 C 157.76937,70.653995 157.93089,70.602369 158.09362,70.554774 158.25637,70.507184 158.42028,70.463654 158.58517,70.424225 Z"
       style="fill:#02a982;fill-opacity:1;fill-rule:nonzero;stroke:#ffffff;stroke-width:0.1911;stroke-linecap:butt;stroke-linejoin:miter;stroke-miterlimit:10;stroke-dasharray:none;stroke-opacity:1"
       id="path73" />
    <path
       d="M 155.09559,63.472598 C 153.32703,64.086859 151.6659,64.975156 150.17305,66.104958 148.68017,67.234762 147.37403,68.592106 146.30244,70.127283 L 152.58456,74.512304 C 153.19689,73.635062 153.94326,72.859433 154.79632,72.213834 155.64938,71.568229 156.5986,71.060631 157.6092,70.709625 Z"
       style="fill:#029365;fill-opacity:1;fill-rule:nonzero;stroke:#ffffff;stroke-width:0.1911;stroke-linecap:butt;stroke-linejoin:miter;stroke-miterlimit:10;stroke-dasharray:none;stroke-opacity:1"
       id="path75" />
    <path
       d="M 146.30244,70.127283 C 144.92099,72.106358 143.95455,74.344858 143.46156,76.707496 142.96854,79.070129 142.95909,81.508325 143.43386,83.87471 L 150.9454,82.367975 C 150.67417,81.015755 150.67956,79.6225 150.9613,78.272427 151.24302,76.922346 151.79528,75.643201 152.58466,74.512304 L 146.30257,70.127283 Z"
       style="fill:#027d4b;fill-opacity:1;fill-rule:nonzero;stroke:#ffffff;stroke-width:0.1911;stroke-linecap:butt;stroke-linejoin:miter;stroke-miterlimit:10;stroke-dasharray:none;stroke-opacity:1"
       id="path77" />
    <path
       d="M 143.43376,83.87471 C 143.96502,86.523117 145.08971,89.016988 146.72308,91.168363 148.35645,93.319738 150.45641,95.07318 152.86467,96.296529 L 156.33439,89.466155 C 154.95824,88.767101 153.75828,87.765135 152.82491,86.535777 151.89157,85.306421 151.24888,83.881351 150.9453,82.367975 Z"
       style="fill:#016735;fill-opacity:1;fill-rule:nonzero;stroke:#ffffff;stroke-width:0.1911;stroke-linecap:butt;stroke-linejoin:miter;stroke-miterlimit:10;stroke-dasharray:none;stroke-opacity:1"
       id="path79" />
    <path
       d="M 152.86467,96.296529 C 155.16797,97.466544 157.69774,98.123481 160.27928,98.221956 162.86083,98.320416 165.4333,97.858123 167.81905,96.866973 170.20477,95.875817 172.34752,94.379179 174.09929,92.480416 175.85107,90.581657 177.1706,88.325523 177.96675,85.86785 L 170.67843,83.506913 C 170.2235,84.911298 169.46949,86.200518 168.46846,87.285523 167.46745,88.370527 166.24303,89.225754 164.87974,89.792124 163.51647,90.358499 162.04649,90.622669 160.57132,90.566398 159.09615,90.510128 157.65057,90.134738 156.33439,89.466155 Z"
       style="fill:#015123;fill-opacity:1;fill-rule:nonzero;stroke:#ffffff;stroke-width:0.1911;stroke-linecap:butt;stroke-linejoin:miter;stroke-miterlimit:10;stroke-dasharray:none;stroke-opacity:1"
       id="path81" />
    <path
       d="M 177.96675,85.86785 C 177.99625,85.77671 178.02515,85.685356 178.05315,85.593759 178.08115,85.502169 178.10845,85.410351 178.13515,85.318321 L 170.77471,83.192894 C 170.75951,83.245484 170.74391,83.297955 170.72781,83.35029 170.71171,83.40262 170.69541,83.454831 170.67841,83.506913 Z"
       style="fill:#ffbd00;fill-opacity:1;fill-rule:nonzero;stroke:#ffffff;stroke-width:0.1911;stroke-linecap:butt;stroke-linejoin:miter;stroke-miterlimit:10;stroke-dasharray:none;stroke-opacity:1"
       id="path83" />
    <path
       d="M 178.13505,85.318321 C 178.17285,85.187603 178.20905,85.056456 178.2438,84.924911 178.2786,84.793364 178.3117,84.661423 178.3436,84.529117 L 170.89381,82.741922 C 170.87561,82.817522 170.85671,82.892921 170.83681,82.968088 170.81701,83.043258 170.79631,83.118198 170.77461,83.192894 Z"
       style="fill:#fb9500;fill-opacity:1;fill-rule:nonzero;stroke:#ffffff;stroke-width:0.1911;stroke-linecap:butt;stroke-linejoin:miter;stroke-miterlimit:10;stroke-dasharray:none;stroke-opacity:1"
       id="path85" />
    <path
       d="M 178.34353,84.529117 C 178.37843,84.38321 178.41173,84.23687 178.44303,84.090123 178.47433,83.943382 178.50383,83.796251 178.53143,83.648767 L 171.00113,82.238866 C 170.98543,82.323146 170.96863,82.407215 170.95053,82.491071 170.93273,82.574911 170.91373,82.658548 170.89363,82.741922 Z"
       style="fill:#d55e00;fill-opacity:1;fill-rule:nonzero;stroke:#ffffff;stroke-width:0.1911;stroke-linecap:butt;stroke-linejoin:miter;stroke-miterlimit:10;stroke-dasharray:none;stroke-opacity:1"
       id="path87" />
    <path
       d="M 178.53143,83.648767 C 178.57433,83.419204 178.61283,83.18882 178.64684,82.957746 178.68084,82.726679 178.71014,82.494962 178.73504,82.262739 L 171.11747,81.446847 C 171.10317,81.579546 171.08637,81.711955 171.06697,81.843998 171.04767,81.976039 171.02547,82.107689 171.00107,82.238866 Z"
       style="fill:#af3300;fill-opacity:1;fill-rule:nonzero;stroke:#ffffff;stroke-width:0.1911;stroke-linecap:butt;stroke-linejoin:miter;stroke-miterlimit:10;stroke-dasharray:none;stroke-opacity:1"
       id="path89" />
    <path
       d="M 178.73483,82.262495 C 178.76843,81.946395 178.79363,81.629444 178.81073,81.31199 178.82743,80.994537 178.83673,80.676689 178.83673,80.358776 H 171.17567 C 171.17567,80.540438 171.16967,80.722068 171.16127,80.903472 171.15057,81.084875 171.13667,81.265986 171.11747,81.446617 L 178.73496,82.262495 Z"
       style="fill:#891300;fill-opacity:1;fill-rule:nonzero;stroke:#ffffff;stroke-width:0.191095;stroke-linecap:butt;stroke-linejoin:miter;stroke-miterlimit:10;stroke-dasharray:none;stroke-opacity:1"
       id="path91" />
    <text
       xml:space="preserve"
       style="font-style:normal;font-variant:normal;font-weight:500;font-stretch:normal;font-size:3.59833px;font-family:'Times New Roman';font-variant-ligatures:no-common-ligatures;text-align:center"
       x="128.93494"
       y="98.496696"
       id="text305"><tspan
         sodipodi:role="line"
         id="tspan303"
         style="font-style:normal;font-variant:normal;font-weight:500;font-stretch:normal;font-size:3.59833px;font-family:'Times New Roman';-inkscape-font-specification:'Times New Roman';font-variant-ligatures:no-common-ligatures;font-variant-caps:normal;font-variant-numeric:normal;font-variant-east-asian:normal;text-align:center;text-anchor:middle;fill:#000000;stroke-width:0.143551"
         x="128.93494"
         y="98.496696">Toy Kitchens</tspan><tspan
         sodipodi:role="line"
         style="font-style:normal;font-variant:normal;font-weight:500;font-stretch:normal;font-size:3.59833px;font-family:'Times New Roman';-inkscape-font-specification:'Times New Roman';font-variant-ligatures:no-common-ligatures;font-variant-caps:normal;font-variant-numeric:normal;font-variant-east-asian:normal;text-align:center;text-anchor:middle;fill:#000000;stroke-width:0.143551"
         x="128.93494"
         y="102.46513"
         id="tspan307">(29,750)</tspan></text>
    <text
       xml:space="preserve"
       style="font-style:normal;font-variant:normal;font-weight:500;font-stretch:normal;font-size:3.59833px;font-family:'Times New Roman';-inkscape-font-specification:'Times New Roman';font-variant-ligatures:no-common-ligatures;font-variant-caps:normal;font-variant-numeric:normal;font-variant-east-asian:normal;text-align:center;text-anchor:middle;stroke-width:0.14355"
       x="200.80801"
       y="86.297241"
       id="text305-6"><tspan
         sodipodi:role="line"
         style="font-style:normal;font-variant:normal;font-weight:500;font-stretch:normal;font-size:3.59833px;font-family:'Times New Roman';-inkscape-font-specification:'Times New Roman';font-variant-ligatures:no-common-ligatures;font-variant-caps:normal;font-variant-numeric:normal;font-variant-east-asian:normal;text-align:center;text-anchor:middle;fill:#000000;stroke-width:0.143551"
         x="200.80801"
         y="86.297241"
         id="tspan307-4">Toy Sinks (2,202)</tspan></text>
    <text
       xml:space="preserve"
       style="font-style:normal;font-variant:normal;font-weight:500;font-stretch:normal;font-size:3.59833px;font-family:'Times New Roman';-inkscape-font-specification:'Times New Roman';font-variant-ligatures:no-common-ligatures;font-variant-caps:normal;font-variant-numeric:normal;font-variant-east-asian:normal;text-align:center;text-anchor:middle;stroke-width:0.14355"
       x="197.70639"
       y="78.583336"
       id="text305-6-9"><tspan
         sodipodi:role="line"
         style="font-style:normal;font-variant:normal;font-weight:500;font-stretch:normal;font-size:3.59833px;font-family:'Times New Roman';-inkscape-font-specification:'Times New Roman';font-variant-ligatures:no-common-ligatures;font-variant-caps:normal;font-variant-numeric:normal;font-variant-east-asian:normal;text-align:center;text-anchor:middle;fill:#000000;stroke-width:0.143551"
         x="197.70639"
         y="78.583336"
         id="tspan307-4-0">Other (1,467)</tspan></text>
    <text
       xml:space="preserve"
       style="font-style:normal;font-variant:normal;font-weight:500;font-stretch:normal;font-size:3.59833px;font-family:'Times New Roman';-inkscape-font-specification:'Times New Roman';font-variant-ligatures:no-common-ligatures;font-variant-caps:normal;font-variant-numeric:normal;font-variant-east-asian:normal;text-align:center;text-anchor:middle;stroke-width:0.14355"
       x="182.37784"
       y="53.334927"
       id="text305-6-9-4"><tspan
         sodipodi:role="line"
         id="tspan303-6-5-8"
         style="font-style:normal;font-variant:normal;font-weight:500;font-stretch:normal;font-size:3.59833px;font-family:'Times New Roman';-inkscape-font-specification:'Times New Roman';font-variant-ligatures:no-common-ligatures;font-variant-caps:normal;font-variant-numeric:normal;font-variant-east-asian:normal;text-align:center;text-anchor:middle;fill:#000000;stroke-width:0.143551"
         x="182.37784"
         y="53.334927">Tabletops</tspan><tspan
         sodipodi:role="line"
         style="font-style:normal;font-variant:normal;font-weight:500;font-stretch:normal;font-size:3.59833px;font-family:'Times New Roman';-inkscape-font-specification:'Times New Roman';font-variant-ligatures:no-common-ligatures;font-variant-caps:normal;font-variant-numeric:normal;font-variant-east-asian:normal;text-align:center;text-anchor:middle;fill:#000000;stroke-width:0.143551"
         x="182.37784"
         y="57.303364"
         id="tspan1232">(10,746)</tspan></text>
    <text
       xml:space="preserve"
       style="font-weight:500;font-size:1.7199px;font-family:'Times New Roman';-inkscape-font-specification:'Times New Roman';font-variant-ligatures:no-common-ligatures;text-align:center;text-anchor:middle;fill:#000000;stroke-width:0.14355"
       x="160.98604"
       y="77.255592"
       id="text1238"><tspan
         sodipodi:role="line"
         id="tspan1236"
         style="font-style:normal;font-variant:normal;font-weight:normal;font-stretch:normal;font-size:1.7199px;font-family:'CMU Typewriter Text';-inkscape-font-specification:'CMU Typewriter Text';stroke-width:0.143551"
         x="160.98604"
         y="77.255592">tabletop_dark_wood</tspan></text>
    <text
       xml:space="preserve"
       style="font-weight:500;font-size:1.7199px;font-family:'Times New Roman';-inkscape-font-specification:'Times New Roman';font-variant-ligatures:no-common-ligatures;text-align:center;text-anchor:middle;fill:#000000;stroke-width:0.14355"
       x="159.99809"
       y="81.502617"
       id="text1238-2"><tspan
         sodipodi:role="line"
         id="tspan1236-2"
         style="font-style:normal;font-variant:normal;font-weight:normal;font-stretch:normal;font-size:1.7199px;font-family:'CMU Typewriter Text';-inkscape-font-specification:'CMU Typewriter Text';stroke-width:0.143551"
         x="159.99809"
         y="81.502617">laundry_machine</tspan></text>
    <text
       xml:space="preserve"
       style="font-weight:500;font-size:1.7199px;font-family:'Times New Roman';-inkscape-font-specification:'Times New Roman';font-variant-ligatures:no-common-ligatures;text-align:center;text-anchor:middle;fill:#000000;stroke-width:0.14355"
       x="162.08098"
       y="85.600349"
       id="text1238-2-6"><tspan
         sodipodi:role="line"
         id="tspan1236-2-1"
         style="font-style:normal;font-variant:normal;font-weight:normal;font-stretch:normal;font-size:1.7199px;font-family:'CMU Typewriter Text';-inkscape-font-specification:'CMU Typewriter Text';stroke-width:0.143551"
         x="162.08098"
         y="85.600349">toykitchen2</tspan></text>
    <path
       style="display:inline;fill:none;fill-rule:evenodd;stroke:#000000;stroke-width:0.214988;stroke-linecap:round;stroke-linejoin:miter;stroke-dasharray:none;stroke-opacity:1"
       d="M 164.40144,89.432509 162.19347,86.332271"
       id="path1395-6"
       inkscape:connector-type="polyline"
       inkscape:connector-curvature="0" />
    <path
       style="fill:none;stroke:#040404;stroke-width:0.214988;stroke-linecap:round;stroke-linejoin:round;stroke-dasharray:none;stroke-dashoffset:0"
       d="M 162.52426,70.648185 161.67758,75.429062"
       id="path11363"
       sodipodi:nodetypes="cc" />
    <path
       style="fill:none;stroke:#040404;stroke-width:0.214988;stroke-linecap:round;stroke-linejoin:round;stroke-dasharray:none;stroke-dashoffset:0"
       d="M 170.45021,79.025065 C 168.29636,79.321722 169.31441,81.105645 167.28098,81.122237"
       id="path11363-3"
       sodipodi:nodetypes="cc" />
  </g>
</svg>
